<?xml version="1.0" encoding="UTF-8"?>
<!DOCTYPE svg PUBLIC "-//W3C//DTD SVG 1.1//EN" "http://www.w3.org/Graphics/SVG/1.1/DTD/svg11.dtd">
<svg xmlns="http://www.w3.org/2000/svg" version="1.1" width="512px" height="512px" style="shape-rendering:geometricPrecision; text-rendering:geometricPrecision; image-rendering:optimizeQuality; fill-rule:evenodd; clip-rule:evenodd" xmlns:xlink="http://www.w3.org/1999/xlink">
<g><path style="opacity:0.99" fill="#6fabe6" d="M 501.5,54.5 C 461.284,50.5845 421.284,52.0845 381.5,59C 350.641,64.6047 322.974,76.938 298.5,96C 276.314,115.536 266.147,140.036 268,169.5C 270.88,182.193 273.047,195.026 274.5,208C 272.657,231.5 261.99,249.834 242.5,263C 238.5,265.333 234.5,267.667 230.5,270C 232.058,270.21 233.391,270.71 234.5,271.5C 229.851,270.705 225.184,270.539 220.5,271C 217.847,273.134 215.847,275.634 214.5,278.5C 184.687,286.26 157.354,299.094 132.5,317C 131.262,317.69 131.262,318.19 132.5,318.5C 129.024,319.643 125.358,319.81 121.5,319C 113.736,314.286 105.403,310.953 96.5,309C 82.8981,308.077 78.3981,313.911 83,326.5C 87.1877,329.866 92.0211,331.366 97.5,331C 101.722,332.941 105.722,335.108 109.5,337.5C 88.5701,359.344 73.2368,384.678 63.5,413.5C 58.8862,414.55 54.2196,414.717 49.5,414C 39.707,406.513 28.707,403.513 16.5,405C 10.9752,407.919 9.14191,412.419 11,418.5C 14.0282,424.266 18.8615,426.766 25.5,426C 32.1667,429 38.8333,432 45.5,435C 49.0863,436.108 52.753,436.608 56.5,436.5C 54.4049,450.745 53.0716,465.078 52.5,479.5C 38.1033,479.807 23.77,479.141 9.5,477.5C 9.5,413.167 9.5,348.833 9.5,284.5C 51.4287,284.092 92.7621,278.926 133.5,269C 161.138,262.691 186.138,251.024 208.5,234C 222.72,221.393 230.386,205.56 231.5,186.5C 211.998,122.684 232.664,77.5176 293.5,51C 321.474,40.0714 350.474,33.7381 380.5,32C 421.142,29.7603 461.475,32.2603 501.5,39.5C 501.5,44.5 501.5,49.5 501.5,54.5 Z"/></g>
<g><path style="opacity:1" fill="#81bbf3" d="M 501.5,54.5 C 501.5,67.5 501.5,80.5 501.5,93.5C 474.4,92.6682 447.4,93.8348 420.5,97C 405.907,99.0864 392.24,103.753 379.5,111C 366.922,121.174 363.422,134.008 369,149.5C 377.035,167.239 386.368,184.239 397,200.5C 422.229,243.309 421.562,285.642 395,327.5C 358.197,380.291 310.03,419.124 250.5,444C 186.956,469.313 120.956,481.147 52.5,479.5C 53.0716,465.078 54.4049,450.745 56.5,436.5C 67.3232,435.503 77.3232,432.003 86.5,426C 90.9054,425.304 95.2388,425.637 99.5,427C 107.348,432.011 115.848,435.178 125,436.5C 134.233,436.27 138.566,431.603 138,422.5C 136.542,420.04 134.709,417.873 132.5,416C 127.868,414.928 123.201,413.928 118.5,413C 106.289,404.57 92.9553,402.237 78.5,406C 73.4469,408.527 68.4469,411.027 63.5,413.5C 73.2368,384.678 88.5701,359.344 109.5,337.5C 125.898,343.151 141.231,340.985 155.5,331C 160.589,330.174 165.589,330.508 170.5,332C 176.046,334.94 181.713,337.606 187.5,340C 192.949,340.896 198.282,340.563 203.5,339C 210.167,333 210.167,327 203.5,321C 198.833,320 194.167,319 189.5,318C 178.923,310.772 167.256,307.772 154.5,309C 146.86,311.479 139.526,314.645 132.5,318.5C 131.262,318.19 131.262,317.69 132.5,317C 157.354,299.094 184.687,286.26 214.5,278.5C 214.431,288.484 219.431,292.984 229.5,292C 236.796,296.147 244.463,299.48 252.5,302C 259.224,302.774 265.89,302.441 272.5,301C 278.112,298.861 283.446,296.194 288.5,293C 294.314,290.831 299.981,291.165 305.5,294C 314.114,300.539 323.781,303.206 334.5,302C 341.505,298.826 343.672,293.659 341,286.5C 339.457,284.622 337.624,283.122 335.5,282C 331.75,281.74 328.084,281.073 324.5,280C 313.684,272.303 301.684,269.303 288.5,271C 279.188,274.901 269.688,278.401 260,281.5C 251.34,278.587 242.84,275.254 234.5,271.5C 233.391,270.71 232.058,270.21 230.5,270C 234.5,267.667 238.5,265.333 242.5,263C 261.99,249.834 272.657,231.5 274.5,208C 273.047,195.026 270.88,182.193 268,169.5C 266.147,140.036 276.314,115.536 298.5,96C 322.974,76.938 350.641,64.6047 381.5,59C 421.284,52.0845 461.284,50.5845 501.5,54.5 Z"/></g>
<g><path style="opacity:1" fill="#5b9ad8" d="M 234.5,271.5 C 242.84,275.254 251.34,278.587 260,281.5C 269.688,278.401 279.188,274.901 288.5,271C 301.684,269.303 313.684,272.303 324.5,280C 328.084,281.073 331.75,281.74 335.5,282C 337.624,283.122 339.457,284.622 341,286.5C 343.672,293.659 341.505,298.826 334.5,302C 323.781,303.206 314.114,300.539 305.5,294C 299.981,291.165 294.314,290.831 288.5,293C 283.446,296.194 278.112,298.861 272.5,301C 265.89,302.441 259.224,302.774 252.5,302C 244.463,299.48 236.796,296.147 229.5,292C 219.431,292.984 214.431,288.484 214.5,278.5C 215.847,275.634 217.847,273.134 220.5,271C 225.184,270.539 229.851,270.705 234.5,271.5 Z"/></g>
<g><path style="opacity:1" fill="#5b9ad8" d="M 132.5,318.5 C 139.526,314.645 146.86,311.479 154.5,309C 167.256,307.772 178.923,310.772 189.5,318C 194.167,319 198.833,320 203.5,321C 210.167,327 210.167,333 203.5,339C 198.282,340.563 192.949,340.896 187.5,340C 181.713,337.606 176.046,334.94 170.5,332C 165.589,330.508 160.589,330.174 155.5,331C 141.231,340.985 125.898,343.151 109.5,337.5C 105.722,335.108 101.722,332.941 97.5,331C 92.0211,331.366 87.1877,329.866 83,326.5C 78.3981,313.911 82.8981,308.077 96.5,309C 105.403,310.953 113.736,314.286 121.5,319C 125.358,319.81 129.024,319.643 132.5,318.5 Z"/></g>
<g><path style="opacity:1" fill="#5b9ad8" d="M 163.5,362.5 C 168.179,362.334 172.845,362.501 177.5,363C 183.954,365.727 190.288,368.727 196.5,372C 201.589,372.826 206.589,372.492 211.5,371C 230.321,359.445 248.987,359.778 267.5,372C 274.632,371.153 280.132,373.653 284,379.5C 285.519,389.153 281.352,394.153 271.5,394.5C 267.446,393.976 263.446,393.143 259.5,392C 254.659,389.079 249.659,386.412 244.5,384C 239.761,383.274 235.095,383.607 230.5,385C 219.887,392.236 208.22,395.236 195.5,394C 187.463,391.48 179.796,388.147 172.5,384C 164.012,384.766 158.678,381.099 156.5,373C 157.237,368.34 159.57,364.84 163.5,362.5 Z"/></g>
<g><path style="opacity:1" fill="#5b9ad8" d="M 63.5,413.5 C 68.4469,411.027 73.4469,408.527 78.5,406C 92.9553,402.237 106.289,404.57 118.5,413C 123.201,413.928 127.868,414.928 132.5,416C 134.709,417.873 136.542,420.04 138,422.5C 138.566,431.603 134.233,436.27 125,436.5C 115.848,435.178 107.348,432.011 99.5,427C 95.2388,425.637 90.9054,425.304 86.5,426C 77.3232,432.003 67.3232,435.503 56.5,436.5C 52.753,436.608 49.0863,436.108 45.5,435C 38.8333,432 32.1667,429 25.5,426C 18.8615,426.766 14.0282,424.266 11,418.5C 9.14191,412.419 10.9752,407.919 16.5,405C 28.707,403.513 39.707,406.513 49.5,414C 54.2196,414.717 58.8862,414.55 63.5,413.5 Z"/></g>
</svg>
